<?xml version="1.0" standalone="no"?>
<!DOCTYPE svg PUBLIC "-//W3C//DTD SVG 20010904//EN"
 "http://www.w3.org/TR/2001/REC-SVG-20010904/DTD/svg10.dtd">
<svg version="1.0" xmlns="http://www.w3.org/2000/svg"
 width="1024.000000pt" height="1024.000000pt" viewBox="0 0 1024.000000 1024.000000"
 preserveAspectRatio="xMidYMid meet">
<metadata>
Created by potrace 1.11, written by Peter Selinger 2001-2013
</metadata>
<g transform="translate(0.000000,1024.000000) scale(0.100000,-0.100000)"
fill="#000000" stroke="none">
<path d="M4970 10225 c0 -11 -11 -15 -40 -15 -22 0 -40 -4 -40 -10 0 -5 -13
-10 -30 -10 -16 0 -30 -4 -30 -10 0 -5 -9 -10 -20 -10 -11 0 -39 -11 -62 -25
-24 -14 -51 -28 -60 -32 -10 -3 -18 -9 -18 -14 0 -5 -9 -9 -19 -9 -11 0 -21
-3 -23 -7 -4 -10 -57 -42 -80 -50 -10 -3 -18 -9 -18 -14 0 -5 -9 -9 -20 -9
-11 0 -20 -4 -20 -9 0 -5 -8 -11 -17 -14 -18 -6 -73 -37 -83 -47 -10 -10 -65
-41 -82 -47 -10 -3 -18 -9 -18 -14 0 -5 -9 -9 -19 -9 -11 0 -21 -3 -23 -7 -4
-10 -57 -42 -80 -50 -10 -3 -18 -9 -18 -14 0 -5 -9 -9 -20 -9 -11 0 -20 -4
-20 -9 0 -5 -8 -11 -17 -14 -18 -6 -73 -37 -83 -47 -3 -3 -26 -16 -52 -29 -27
-13 -48 -28 -48 -33 0 -4 -9 -8 -19 -8 -11 0 -21 -3 -23 -7 -4 -10 -57 -42
-80 -50 -10 -3 -18 -9 -18 -14 0 -5 -9 -9 -19 -9 -11 0 -21 -3 -23 -7 -4 -10
-57 -42 -80 -50 -10 -3 -18 -9 -18 -14 0 -5 -9 -9 -20 -9 -11 0 -20 -4 -20 -9
0 -5 -8 -11 -17 -14 -18 -6 -73 -37 -83 -47 -3 -3 -26 -16 -52 -29 -27 -13
-48 -28 -48 -33 0 -4 -9 -8 -20 -8 -11 0 -20 -4 -20 -10 0 -5 -7 -10 -15 -10
-9 0 -25 -9 -37 -20 -12 -11 -28 -20 -35 -20 -7 0 -13 -4 -13 -10 0 -5 -9 -10
-20 -10 -11 0 -20 -4 -20 -9 0 -5 -8 -11 -17 -14 -24 -8 -77 -40 -81 -49 -2
-5 -12 -8 -23 -8 -10 0 -19 -4 -19 -9 0 -5 -8 -11 -17 -14 -18 -6 -73 -37 -83
-47 -3 -3 -26 -16 -52 -29 -27 -13 -48 -28 -48 -33 0 -4 -9 -8 -20 -8 -11 0
-20 -4 -20 -10 0 -5 -7 -10 -15 -10 -9 0 -25 -9 -37 -20 -12 -11 -28 -20 -35
-20 -7 0 -13 -4 -13 -10 0 -5 -9 -10 -19 -10 -11 0 -21 -3 -23 -7 -4 -10 -57
-42 -80 -50 -10 -3 -18 -9 -18 -14 0 -5 -9 -9 -20 -9 -11 0 -20 -4 -20 -10 0
-5 -6 -10 -13 -10 -7 0 -23 -9 -35 -20 -12 -11 -28 -20 -37 -20 -8 0 -15 -4
-15 -9 0 -5 -8 -11 -17 -14 -24 -8 -77 -40 -81 -49 -2 -5 -12 -8 -22 -8 -10 0
-20 -3 -22 -7 -4 -10 -57 -42 -80 -50 -10 -3 -18 -9 -18 -14 0 -5 -9 -9 -20
-9 -11 0 -20 -4 -20 -9 0 -5 -8 -11 -17 -14 -18 -6 -73 -37 -83 -47 -3 -3 -26
-16 -52 -29 -27 -13 -48 -28 -48 -33 0 -4 -9 -8 -20 -8 -11 0 -20 -4 -20 -10
0 -5 -7 -10 -15 -10 -9 0 -25 -9 -37 -20 -12 -11 -28 -20 -35 -20 -7 0 -13 -4
-13 -10 0 -5 -9 -10 -19 -10 -11 0 -21 -3 -23 -7 -4 -10 -57 -42 -80 -50 -10
-3 -18 -9 -18 -14 0 -5 -9 -9 -20 -9 -11 0 -20 -4 -20 -9 0 -5 -8 -11 -17 -14
-18 -6 -73 -37 -83 -47 -3 -3 -26 -16 -52 -29 -27 -13 -48 -28 -48 -33 0 -4
-9 -8 -20 -8 -11 0 -20 -4 -20 -10 0 -5 -7 -10 -15 -10 -9 0 -25 -9 -37 -20
-12 -11 -28 -20 -35 -20 -7 0 -13 -4 -13 -10 0 -5 -9 -10 -19 -10 -11 0 -21
-3 -23 -7 -4 -10 -57 -42 -80 -50 -10 -3 -18 -9 -18 -14 0 -5 -9 -9 -19 -9
-11 0 -21 -3 -23 -7 -4 -10 -57 -42 -80 -50 -10 -3 -18 -9 -18 -14 0 -5 -9 -9
-20 -9 -11 0 -20 -4 -20 -8 0 -5 -12 -15 -27 -23 -38 -19 -53 -35 -53 -53 0
-9 -5 -16 -11 -16 -5 0 -7 5 -3 12 7 11 -26 -11 -66 -44 -21 -17 -67 -84 -52
-74 17 10 15 -2 -2 -20 -8 -8 -22 -14 -30 -14 -9 0 -16 -6 -16 -13 0 -7 -9
-23 -20 -35 -11 -12 -20 -28 -20 -37 0 -8 -4 -15 -10 -15 -5 0 -10 -9 -10 -20
0 -11 -4 -20 -10 -20 -5 0 -10 -9 -10 -20 0 -11 -4 -20 -10 -20 -5 0 -10 -13
-10 -30 0 -16 -4 -30 -10 -30 -5 0 -10 -16 -10 -35 0 -19 -4 -35 -9 -35 -4 0
-12 -35 -16 -77 -11 -103 -11 -4397 -1 -4491 5 -40 13 -75 17 -78 5 -3 9 -21
9 -40 0 -19 5 -34 10 -34 6 0 10 -13 10 -30 0 -16 5 -30 10 -30 6 0 10 -9 10
-20 0 -11 5 -20 10 -20 6 0 10 -9 10 -20 0 -11 5 -20 10 -20 6 0 10 -9 10 -20
0 -11 5 -20 10 -20 6 0 10 -6 10 -13 0 -7 8 -22 18 -33 10 -10 29 -35 42 -54
29 -41 86 -100 97 -100 4 0 22 -14 40 -30 18 -17 36 -30 41 -30 4 0 17 -8 28
-18 10 -9 40 -28 66 -41 27 -13 48 -28 48 -33 0 -4 9 -8 20 -8 11 0 20 -3 20
-8 0 -4 14 -13 30 -20 17 -8 28 -18 25 -23 -4 -5 0 -6 8 -3 8 3 21 -2 30 -10
9 -9 23 -16 31 -16 9 0 16 -4 16 -9 0 -5 8 -11 18 -14 17 -6 72 -37 82 -47 3
-3 26 -16 53 -29 26 -13 47 -28 47 -33 0 -4 9 -8 19 -8 11 0 21 -3 23 -7 1 -5
24 -19 50 -32 27 -13 48 -28 48 -33 0 -4 9 -8 19 -8 11 0 21 -3 23 -7 4 -10
57 -42 81 -50 9 -3 17 -9 17 -14 0 -5 9 -9 20 -9 11 0 20 -4 20 -9 0 -5 8 -11
18 -14 17 -6 72 -37 82 -47 3 -3 26 -16 53 -29 26 -13 47 -28 47 -33 0 -4 9
-8 19 -8 11 0 21 -3 23 -7 2 -5 24 -19 50 -32 27 -13 48 -28 48 -33 0 -4 9 -8
19 -8 11 0 21 -3 23 -7 4 -10 57 -42 81 -50 9 -3 17 -9 17 -14 0 -5 9 -9 20
-9 11 0 20 -4 20 -9 0 -5 8 -11 18 -14 17 -6 72 -37 82 -47 3 -3 26 -16 53
-29 26 -13 47 -28 47 -33 0 -4 9 -8 19 -8 11 0 21 -3 23 -7 2 -5 24 -19 51
-32 26 -13 47 -28 47 -33 0 -4 9 -8 19 -8 11 0 21 -3 23 -7 4 -10 57 -42 81
-50 9 -3 17 -9 17 -14 0 -5 9 -9 20 -9 11 0 20 -4 20 -9 0 -5 8 -11 18 -14 17
-6 72 -37 82 -47 3 -3 26 -16 53 -29 26 -13 47 -28 47 -33 0 -4 9 -8 20 -8 11
0 20 -3 20 -8 0 -4 14 -13 30 -20 17 -8 28 -18 25 -23 -4 -5 0 -6 8 -3 8 3 21
-2 30 -10 9 -9 23 -16 31 -16 9 0 16 -4 16 -9 0 -5 8 -11 18 -14 17 -6 72 -37
82 -47 3 -3 26 -16 53 -29 26 -13 47 -28 47 -33 0 -4 9 -8 19 -8 11 0 21 -3
23 -7 2 -5 24 -19 51 -32 26 -13 47 -28 47 -33 0 -4 9 -8 19 -8 11 0 21 -3 23
-7 4 -10 57 -42 81 -50 9 -3 17 -9 17 -14 0 -5 9 -9 20 -9 11 0 20 -4 20 -9 0
-5 8 -11 18 -14 17 -6 72 -37 82 -47 3 -3 26 -16 53 -29 26 -13 47 -28 47 -33
0 -4 9 -8 19 -8 11 0 21 -3 23 -7 1 -5 24 -19 51 -32 26 -13 47 -28 47 -33 0
-4 9 -8 19 -8 11 0 21 -3 23 -7 4 -10 57 -42 81 -50 9 -3 17 -9 17 -14 0 -5 9
-9 20 -9 11 0 20 -4 20 -9 0 -5 8 -11 18 -14 17 -6 72 -37 82 -47 3 -3 26 -16
53 -29 26 -13 47 -28 47 -33 0 -4 9 -8 19 -8 11 0 21 -3 23 -7 2 -5 24 -19 50
-32 27 -13 48 -28 48 -33 0 -4 9 -8 19 -8 11 0 21 -3 23 -7 4 -10 57 -42 81
-50 9 -3 17 -9 17 -14 0 -5 9 -9 20 -9 11 0 20 -4 20 -10 0 -5 11 -10 24 -10
14 0 28 -5 31 -10 3 -6 17 -10 30 -10 13 0 27 -5 30 -10 3 -6 22 -10 41 -10
19 0 34 -4 34 -10 0 -13 307 -13 315 0 3 5 24 10 46 10 21 0 39 5 39 10 0 6
14 10 30 10 17 0 30 5 30 10 0 6 6 10 14 10 16 0 140 62 144 73 2 4 12 7 22 7
10 0 20 3 22 8 4 9 57 41 81 49 9 3 17 9 17 14 0 5 9 9 20 9 11 0 20 4 20 8 0
5 21 20 48 33 26 13 49 27 50 32 2 4 10 7 18 7 8 0 24 9 36 20 12 11 28 20 35
20 7 0 13 5 13 10 0 6 9 10 19 10 11 0 21 3 23 8 4 9 57 41 81 49 9 3 17 9 17
14 0 5 9 9 20 9 11 0 20 4 20 8 0 5 21 20 48 33 26 13 49 27 50 32 2 4 12 7
23 7 10 0 19 4 19 8 0 5 21 20 48 33 26 13 49 27 50 32 2 4 10 7 18 7 8 0 24
9 36 20 12 11 28 20 35 20 7 0 13 5 13 10 0 6 9 10 19 10 11 0 21 3 23 8 4 9
57 41 81 49 9 3 17 9 17 14 0 5 9 9 20 9 11 0 20 4 20 8 0 5 21 20 48 33 26
13 49 27 50 32 2 4 10 7 18 7 8 0 24 9 36 20 12 11 28 20 35 20 7 0 13 5 13
10 0 6 9 10 20 10 11 0 20 5 20 10 0 6 7 10 15 10 9 0 25 9 37 20 12 11 28 20
35 20 7 0 13 5 13 10 0 6 9 10 19 10 11 0 21 3 23 8 4 9 57 41 81 49 9 3 17 9
17 14 0 5 9 9 20 9 11 0 20 4 20 8 0 5 21 20 48 33 26 13 49 27 50 32 2 4 10
7 18 7 8 0 24 9 36 20 12 11 28 20 35 20 7 0 13 5 13 10 0 6 9 10 20 10 11 0
20 5 20 10 0 6 7 10 15 10 9 0 25 9 37 20 12 11 28 20 35 20 7 0 13 5 13 10 0
6 9 10 19 10 11 0 21 3 23 8 4 9 57 41 81 49 9 3 17 9 17 14 0 5 9 9 20 9 11
0 20 4 20 8 0 5 21 20 48 33 26 13 49 27 50 32 2 4 10 7 18 7 8 0 24 9 36 20
12 11 28 20 35 20 7 0 13 5 13 10 0 6 9 10 19 10 11 0 21 3 23 8 4 9 57 41 81
49 9 3 17 9 17 14 0 5 9 9 20 9 11 0 20 4 20 8 0 5 21 20 48 33 26 13 49 27
50 32 2 4 10 7 18 7 8 0 24 9 36 20 12 11 28 20 35 20 7 0 13 5 13 10 0 6 9
10 20 10 11 0 20 5 20 10 0 6 7 10 15 10 9 0 25 9 37 20 12 11 28 20 35 20 7
0 13 5 13 10 0 6 9 10 19 10 11 0 21 3 23 8 4 9 57 41 81 49 9 3 17 9 17 14 0
5 9 9 20 9 11 0 20 4 20 8 0 5 21 20 48 33 26 13 49 27 50 32 2 4 10 7 18 7 8
0 24 9 36 20 12 11 28 20 35 20 7 0 13 5 13 10 0 6 9 10 20 10 11 0 20 5 20
10 0 6 7 10 15 10 9 0 25 9 37 20 12 11 28 20 35 20 7 0 13 5 13 10 0 6 9 10
19 10 11 0 21 3 23 8 4 9 57 41 81 49 9 3 17 9 17 14 0 5 9 9 20 9 11 0 20 4
20 8 0 5 21 20 48 33 26 13 49 26 52 29 3 3 14 10 25 16 51 28 71 41 108 74
79 68 154 150 176 193 8 15 18 27 23 27 4 0 8 9 8 19 0 17 12 46 51 123 5 10
9 27 9 37 0 11 4 22 9 25 5 3 12 23 17 43 13 64 17 4581 4 4628 -34 121 -36
127 -69 193 -11 24 -21 50 -21 58 0 8 -5 14 -11 14 -6 0 -9 -7 -6 -14 4 -10 1
-13 -8 -10 -8 3 -27 -3 -43 -14 -15 -11 -55 -35 -87 -53 -33 -17 -74 -42 -92
-55 -29 -22 -31 -26 -21 -58 18 -57 2 -122 -41 -164 -20 -20 -50 -44 -66 -52
-17 -8 -41 -22 -55 -31 -14 -9 -50 -30 -80 -46 -30 -17 -95 -54 -145 -83 -91
-53 -126 -74 -190 -110 -62 -36 -98 -57 -190 -110 -120 -70 -187 -109 -262
-151 -21 -12 -42 -25 -48 -29 -5 -4 -35 -21 -65 -37 -30 -17 -95 -54 -145 -83
-118 -69 -186 -108 -262 -151 -21 -12 -42 -25 -48 -29 -5 -4 -35 -21 -65 -37
-30 -17 -95 -54 -145 -83 -118 -69 -186 -108 -262 -151 -21 -12 -42 -25 -48
-29 -5 -4 -35 -21 -65 -37 -30 -17 -95 -54 -145 -83 -91 -53 -126 -74 -190
-110 -62 -36 -98 -57 -190 -110 -120 -70 -187 -109 -262 -151 -21 -12 -42 -25
-48 -29 -5 -4 -35 -21 -65 -37 -30 -17 -95 -54 -145 -83 -91 -53 -126 -74
-190 -110 -19 -11 -51 -29 -70 -40 -19 -11 -51 -29 -70 -40 -76 -44 -207 -119
-320 -186 -22 -13 -59 -33 -82 -46 l-43 -21 -2 -2293 -3 -2293 -21 -28 c-11
-15 -36 -39 -55 -51 -29 -20 -43 -23 -90 -19 -65 6 -100 25 -129 72 -20 32
-20 43 -20 2319 l0 2287 -26 24 c-15 14 -33 25 -40 25 -8 0 -14 4 -14 9 0 5
-8 11 -17 14 -10 4 -38 18 -63 33 -46 27 -80 47 -147 85 -21 12 -49 29 -63 38
-14 9 -38 23 -55 31 -16 8 -32 17 -35 20 -3 3 -16 11 -29 18 -37 21 -87 50
-126 72 -19 11 -52 30 -72 41 -21 12 -49 29 -63 38 -14 9 -38 23 -55 31 -16 8
-48 26 -70 40 -22 14 -53 32 -70 40 -16 8 -32 17 -35 20 -3 3 -16 11 -29 18
-37 21 -87 50 -126 72 -19 11 -52 30 -72 41 -21 12 -49 29 -63 38 -14 9 -38
23 -55 31 -16 8 -32 17 -35 20 -6 6 -43 27 -95 54 -22 12 -42 23 -45 26 -3 3
-16 11 -29 18 -37 21 -87 50 -126 72 -19 11 -52 30 -72 41 -21 12 -49 29 -63
38 -14 9 -38 23 -55 31 -16 8 -32 17 -35 20 -6 6 -43 27 -95 54 -22 12 -42 23
-45 26 -3 3 -16 11 -29 18 -37 21 -87 50 -126 72 -19 11 -52 30 -72 41 -21 12
-49 29 -63 38 -14 9 -38 23 -55 31 -16 8 -32 17 -35 20 -3 3 -16 11 -29 18
-37 21 -87 50 -126 72 -19 11 -52 30 -73 41 -20 12 -48 29 -62 38 -14 9 -38
23 -55 31 -16 8 -32 17 -35 20 -6 6 -43 27 -95 54 -22 12 -42 23 -45 26 -3 3
-16 11 -29 18 -37 21 -87 50 -126 72 -19 11 -52 30 -73 41 -20 12 -48 29 -62
38 -14 9 -38 23 -55 31 -16 8 -32 17 -35 20 -6 6 -43 27 -95 54 -22 12 -42 23
-45 26 -3 3 -16 11 -29 18 -37 21 -87 50 -126 72 -19 11 -52 30 -73 41 -20 12
-48 29 -62 38 -14 9 -38 23 -55 31 -16 8 -32 17 -35 20 -5 5 -29 19 -89 51
-20 11 -48 34 -64 52 -23 27 -27 40 -26 92 0 38 7 71 18 89 20 34 92 76 131
76 28 0 128 -46 195 -89 22 -15 53 -33 70 -41 16 -8 58 -32 92 -52 35 -21 65
-38 69 -38 3 0 18 -8 32 -19 15 -10 44 -28 65 -40 20 -11 53 -30 72 -41 -126
72 325 -186 140 -80 87 -50 103 -59 153 -89 29 -17 55 -31 58 -31 3 0 18 -8
32 -19 15 -10 44 -28 64 -40 36 -20 68 -38 141 -80 17 -10 56 -32 85 -50 29
-17 55 -31 58 -31 3 0 18 -8 32 -19 15 -10 44 -28 65 -40 20 -11 53 -30 72
-41 19 -11 51 -29 70 -40 19 -11 51 -29 70 -40 87 -50 103 -59 153 -89 29 -17
55 -31 58 -31 3 0 18 -8 32 -19 15 -10 44 -28 65 -40 20 -11 53 -30 72 -41 19
-11 51 -29 70 -40 19 -11 51 -29 70 -40 87 -50 103 -59 153 -89 29 -17 55 -31
58 -31 3 0 18 -8 32 -19 15 -10 44 -28 65 -40 35 -20 67 -38 140 -80 17 -10
56 -32 85 -50 29 -17 54 -31 56 -31 2 0 34 -18 70 -40 36 -22 68 -40 72 -40 3
0 18 -8 32 -19 15 -10 44 -28 65 -40 35 -20 67 -38 140 -80 17 -10 56 -32 85
-50 29 -17 55 -31 58 -31 3 0 18 -8 32 -19 15 -10 44 -28 65 -40 20 -11 53
-30 72 -41 -300 171 416 -238 140 -80 87 -50 103 -59 153 -89 29 -17 55 -31
58 -31 3 0 18 -8 32 -19 15 -10 44 -28 65 -40 20 -11 53 -30 73 -41 19 -11 39
-18 45 -15 5 4 9 950 9 2466 l0 2459 -80 0 c-64 0 -80 -3 -80 -15z m-17 -32
c-7 -2 -21 -2 -30 0 -10 3 -4 5 12 5 17 0 24 -2 18 -5z m-76 -19 c-3 -3 -12
-4 -19 -1 -8 3 -5 6 6 6 11 1 17 -2 13 -5z m4730 -2666 c-3 -8 -6 -5 -6 6 -1
11 2 17 5 13 3 -3 4 -12 1 -19z m20 -70 c-3 -8 -6 -5 -6 6 -1 11 2 17 5 13 3
-3 4 -12 1 -19z m20 -3445 c-1 -620 -2 -115 -2 1122 0 1238 1 1745 2 1128 2
-617 2 -1629 0 -2250z m-20 -1215 c-3 -8 -6 -5 -6 6 -1 11 2 17 5 13 3 -3 4
-12 1 -19z"/>
<path d="M5600 10080 c0 -5 5 -10 11 -10 5 0 7 5 4 10 -3 6 -8 10 -11 10 -2 0
-4 -4 -4 -10z"/>
<path d="M5840 9940 c0 -5 5 -10 11 -10 5 0 7 5 4 10 -3 6 -8 10 -11 10 -2 0
-4 -4 -4 -10z"/>
<path d="M5980 9860 c0 -5 5 -10 11 -10 5 0 7 5 4 10 -3 6 -8 10 -11 10 -2 0
-4 -4 -4 -10z"/>
<path d="M6120 9780 c0 -5 5 -10 11 -10 5 0 7 5 4 10 -3 6 -8 10 -11 10 -2 0
-4 -4 -4 -10z"/>
<path d="M6220 9720 c0 -5 5 -10 11 -10 5 0 7 5 4 10 -3 6 -8 10 -11 10 -2 0
-4 -4 -4 -10z"/>
<path d="M6360 9640 c0 -5 5 -10 11 -10 5 0 7 5 4 10 -3 6 -8 10 -11 10 -2 0
-4 -4 -4 -10z"/>
<path d="M6500 9560 c0 -5 5 -10 11 -10 5 0 7 5 4 10 -3 6 -8 10 -11 10 -2 0
-4 -4 -4 -10z"/>
<path d="M6640 9480 c0 -5 5 -10 11 -10 5 0 7 5 4 10 -3 6 -8 10 -11 10 -2 0
-4 -4 -4 -10z"/>
<path d="M6740 9420 c0 -5 5 -10 11 -10 5 0 7 5 4 10 -3 6 -8 10 -11 10 -2 0
-4 -4 -4 -10z"/>
<path d="M6880 9340 c0 -5 5 -10 11 -10 5 0 7 5 4 10 -3 6 -8 10 -11 10 -2 0
-4 -4 -4 -10z"/>
<path d="M7260 9120 c0 -5 5 -10 11 -10 5 0 7 5 4 10 -3 6 -8 10 -11 10 -2 0
-4 -4 -4 -10z"/>
<path d="M7400 9040 c0 -5 5 -10 11 -10 5 0 7 5 4 10 -3 6 -8 10 -11 10 -2 0
-4 -4 -4 -10z"/>
<path d="M7540 8960 c0 -5 5 -10 11 -10 5 0 7 5 4 10 -3 6 -8 10 -11 10 -2 0
-4 -4 -4 -10z"/>
<path d="M7780 8820 c0 -5 5 -10 11 -10 5 0 7 5 4 10 -3 6 -8 10 -11 10 -2 0
-4 -4 -4 -10z"/>
<path d="M7920 8740 c0 -5 5 -10 11 -10 5 0 7 5 4 10 -3 6 -8 10 -11 10 -2 0
-4 -4 -4 -10z"/>
<path d="M8060 8660 c0 -5 5 -10 11 -10 5 0 7 5 4 10 -3 6 -8 10 -11 10 -2 0
-4 -4 -4 -10z"/>
<path d="M8160 8600 c0 -5 5 -10 11 -10 5 0 7 5 4 10 -3 6 -8 10 -11 10 -2 0
-4 -4 -4 -10z"/>
<path d="M8300 8520 c0 -5 5 -10 11 -10 5 0 7 5 4 10 -3 6 -8 10 -11 10 -2 0
-4 -4 -4 -10z"/>
<path d="M8440 8440 c0 -5 5 -10 11 -10 5 0 7 5 4 10 -3 6 -8 10 -11 10 -2 0
-4 -4 -4 -10z"/>
<path d="M8580 8360 c0 -5 5 -10 11 -10 5 0 7 5 4 10 -3 6 -8 10 -11 10 -2 0
-4 -4 -4 -10z"/>
<path d="M8680 8300 c0 -5 5 -10 11 -10 5 0 7 5 4 10 -3 6 -8 10 -11 10 -2 0
-4 -4 -4 -10z"/>
<path d="M8820 8220 c0 -5 5 -10 11 -10 5 0 7 5 4 10 -3 6 -8 10 -11 10 -2 0
-4 -4 -4 -10z"/>
<path d="M8960 8140 c0 -5 5 -10 11 -10 5 0 7 5 4 10 -3 6 -8 10 -11 10 -2 0
-4 -4 -4 -10z"/>
<path d="M9200 8000 c0 -5 5 -10 11 -10 5 0 7 5 4 10 -3 6 -8 10 -11 10 -2 0
-4 -4 -4 -10z"/>
</g>
</svg>
